<svg width="53" height="50" viewBox="0 0 53 50" fill="none" xmlns="http://www.w3.org/2000/svg">
<path d="M50.8105 28.008C50.8105 31.1227 50.2345 34.0027 49.0825 36.648C47.9305 39.2933 46.2878 41.5973 44.1545 43.56C42.0638 45.5227 39.5678 47.0587 36.6665 48.168C33.7652 49.2347 30.5652 49.768 27.0665 49.768C23.1838 49.768 19.6425 49.1707 16.4425 47.976C13.2425 46.7813 10.4692 45.096 8.1225 42.92C5.8185 40.7013 4.0265 38.0773 2.7465 35.048C1.50917 32.0187 0.8905 28.6693 0.8905 25C0.8905 21.3307 1.50917 17.9813 2.7465 14.952C4.0265 11.9227 5.83983 9.32 8.1865 7.144C10.5332 4.92533 13.3065 3.21866 16.5065 2.024C19.7492 0.829332 23.3118 0.231998 27.1945 0.231998C31.6745 0.231998 35.6852 1.02133 39.2265 2.6C42.7678 4.17867 45.6265 6.33333 47.8025 9.064C49.9785 11.7947 51.2372 14.888 51.5785 18.344H47.8665C47.3545 15.4 46.1812 12.8187 44.3465 10.6C42.5118 8.38133 40.1225 6.65333 37.1785 5.416C34.2772 4.17866 30.8852 3.56 27.0025 3.56C22.4798 3.56 18.5332 4.456 15.1625 6.248C11.8345 7.99733 9.23183 10.472 7.3545 13.672C5.51983 16.872 4.6025 20.648 4.6025 25C4.6025 29.3093 5.51983 33.0853 7.3545 36.328C9.23183 39.528 11.8558 42.024 15.2265 43.816C18.5972 45.5653 22.5438 46.44 27.0665 46.44C31.5038 46.44 35.3652 45.5867 38.6505 43.88C41.9358 42.1733 44.4745 39.848 46.2665 36.904C48.0585 33.96 48.9545 30.632 48.9545 26.92L50.8105 28.008ZM30.0745 29.672V26.472H52.2185V49H49.1465L48.9545 28.2L50.3625 29.672H30.0745Z" fill="white"/>
</svg>
