<svg width="249" height="50" viewBox="0 0 249 50" fill="none" xmlns="http://www.w3.org/2000/svg">
<path d="M50.5605 28.008C50.5605 31.1227 49.9845 34.0027 48.8325 36.648C47.6805 39.2933 46.0378 41.5973 43.9045 43.56C41.8138 45.5227 39.3178 47.0587 36.4165 48.168C33.5152 49.2347 30.3152 49.768 26.8165 49.768C22.9338 49.768 19.3925 49.1707 16.1925 47.976C12.9925 46.7813 10.2192 45.096 7.8725 42.92C5.5685 40.7013 3.7765 38.0773 2.4965 35.048C1.25917 32.0187 0.6405 28.6693 0.6405 25C0.6405 21.3307 1.25917 17.9813 2.4965 14.952C3.7765 11.9227 5.58983 9.32 7.9365 7.144C10.2832 4.92533 13.0565 3.21866 16.2565 2.024C19.4992 0.829332 23.0618 0.231998 26.9445 0.231998C31.4245 0.231998 35.4352 1.02133 38.9765 2.6C42.5178 4.17867 45.3765 6.33333 47.5525 9.064C49.7285 11.7947 50.9872 14.888 51.3285 18.344H47.6165C47.1045 15.4 45.9312 12.8187 44.0965 10.6C42.2618 8.38133 39.8725 6.65333 36.9285 5.416C34.0272 4.17866 30.6352 3.56 26.7525 3.56C22.2298 3.56 18.2832 4.456 14.9125 6.248C11.5845 7.99733 8.98183 10.472 7.1045 13.672C5.26983 16.872 4.3525 20.648 4.3525 25C4.3525 29.3093 5.26983 33.0853 7.1045 36.328C8.98183 39.528 11.6058 42.024 14.9765 43.816C18.3472 45.5653 22.2938 46.44 26.8165 46.44C31.2538 46.44 35.1152 45.5867 38.4005 43.88C41.6858 42.1733 44.2245 39.848 46.0165 36.904C47.8085 33.96 48.7045 30.632 48.7045 26.92L50.5605 28.008ZM29.8245 29.672V26.472H51.9685V49H48.8965L48.7045 28.2L50.1125 29.672H29.8245ZM65.9795 0.999996V47.4L64.3795 45.8H100.796V49H62.3955V0.999996H65.9795ZM138.747 49L137.595 35.24L139.131 31.08L137.595 26.92L138.747 13.16H142.203L140.731 31.08L142.203 49H138.747ZM140.731 31.08C139.707 34.792 138.192 38.056 136.187 40.872C134.182 43.688 131.792 45.8853 129.019 47.464C126.288 49 123.259 49.768 119.931 49.768C116.432 49.768 113.318 48.9787 110.587 47.4C107.856 45.8213 105.702 43.624 104.123 40.808C102.544 37.992 101.755 34.7493 101.755 31.08C101.755 27.368 102.544 24.1253 104.123 21.352C105.702 18.536 107.856 16.3387 110.587 14.76C113.318 13.1813 116.432 12.392 119.931 12.392C123.259 12.392 126.288 13.1813 129.019 14.76C131.792 16.3387 134.182 18.536 136.187 21.352C138.192 24.1253 139.707 27.368 140.731 31.08ZM105.339 31.08C105.339 34.1093 105.958 36.7973 107.195 39.144C108.475 41.448 110.203 43.2613 112.379 44.584C114.598 45.864 117.115 46.504 119.931 46.504C122.747 46.504 125.328 45.864 127.675 44.584C130.022 43.2613 132.112 41.448 133.947 39.144C135.782 36.7973 137.318 34.1093 138.555 31.08C137.318 28.008 135.782 25.32 133.947 23.016C132.112 20.712 130.022 18.92 127.675 17.64C125.328 16.3173 122.747 15.656 119.931 15.656C117.115 15.656 114.598 16.3173 112.379 17.64C110.203 18.92 108.475 20.712 107.195 23.016C105.958 25.32 105.339 28.008 105.339 31.08ZM196.681 48.104H194.185V0.999996H197.641V49H192.969L153.481 1.896H155.977V49H152.521V0.999996H157.193L196.681 48.104ZM205.987 49V45.8L245.795 1.896L246.755 4.2H206.307V0.999996H248.291V4.2L208.547 48.104L207.523 45.8H248.483V49H205.987Z" fill="white"/>
</svg>
