<svg width="214" height="214" viewBox="0 0 214 214" fill="none" xmlns="http://www.w3.org/2000/svg">
<path d="M108.962 17.8333H105.038C100.309 17.8333 95.7727 19.7122 92.4283 23.0566C89.0839 26.401 87.205 30.937 87.205 35.6666V37.2716C87.2018 40.3989 86.3763 43.4704 84.8112 46.1779C83.2462 48.8855 80.9967 51.1338 78.2883 52.6975L74.4542 54.9266C71.7432 56.4918 68.6679 57.3159 65.5375 57.3159C62.4071 57.3159 59.3319 56.4918 56.6208 54.9266L55.2833 54.2133C51.1912 51.8527 46.3296 51.2124 41.7657 52.4327C37.2018 53.6531 33.3087 56.6345 30.9409 60.7225L28.9792 64.1108C26.6186 68.203 25.9782 73.0646 27.1986 77.6285C28.419 82.1923 31.4004 86.0855 35.4883 88.4533L36.8259 89.345C39.5211 90.901 41.7623 93.1353 43.3266 95.8259C44.8908 98.5164 45.7237 101.569 45.7425 104.682V109.229C45.755 112.372 44.9369 115.461 43.3711 118.186C41.8052 120.911 39.5473 123.173 36.8259 124.744L35.4883 125.547C31.4004 127.914 28.419 131.808 27.1986 136.371C25.9782 140.935 26.6186 145.797 28.9792 149.889L30.9409 153.277C33.3087 157.365 37.2018 160.347 41.7657 161.567C46.3296 162.788 51.1912 162.147 55.2833 159.787L56.6208 159.073C59.3319 157.508 62.4071 156.684 65.5375 156.684C68.6679 156.684 71.7432 157.508 74.4542 159.073L78.2883 161.302C80.9967 162.866 83.2462 165.114 84.8112 167.822C86.3763 170.53 87.2018 173.601 87.205 176.728V178.333C87.205 183.063 89.0839 187.599 92.4283 190.943C95.7727 194.288 100.309 196.167 105.038 196.167H108.962C113.691 196.167 118.227 194.288 121.572 190.943C124.916 187.599 126.795 183.063 126.795 178.333V176.728C126.798 173.601 127.624 170.53 129.189 167.822C130.754 165.114 133.003 162.866 135.712 161.302L139.546 159.073C142.257 157.508 145.332 156.684 148.463 156.684C151.593 156.684 154.668 157.508 157.379 159.073L158.717 159.787C162.809 162.147 167.67 162.788 172.234 161.567C176.798 160.347 180.691 157.365 183.059 153.277L185.021 149.8C187.381 145.708 188.022 140.846 186.801 136.282C185.581 131.718 182.6 127.825 178.512 125.457L177.174 124.744C174.453 123.173 172.195 120.911 170.629 118.186C169.063 115.461 168.245 112.372 168.258 109.229V104.771C168.245 101.628 169.063 98.5385 170.629 95.8139C172.195 93.0894 174.453 90.827 177.174 89.2558L178.512 88.4533C182.6 86.0855 185.581 82.1923 186.801 77.6285C188.022 73.0646 187.381 68.203 185.021 64.1108L183.059 60.7225C180.691 56.6345 176.798 53.6531 172.234 52.4327C167.67 51.2124 162.809 51.8527 158.717 54.2133L157.379 54.9266C154.668 56.4918 151.593 57.3159 148.463 57.3159C145.332 57.3159 142.257 56.4918 139.546 54.9266L135.712 52.6975C133.003 51.1338 130.754 48.8855 129.189 46.1779C127.624 43.4704 126.798 40.3989 126.795 37.2716V35.6666C126.795 30.937 124.916 26.401 121.572 23.0566C118.227 19.7122 113.691 17.8333 108.962 17.8333Z" fill="#808080" fill-opacity="0.2"/>
<path d="M107 133.75C121.774 133.75 133.75 121.774 133.75 107C133.75 92.2264 121.774 80.25 107 80.25C92.2264 80.25 80.25 92.2264 80.25 107C80.25 121.774 92.2264 133.75 107 133.75Z" fill="#808080" fill-opacity="0.2"/>
<path d="M108.962 17.8333H105.038C100.309 17.8333 95.7727 19.7122 92.4283 23.0566C89.0839 26.401 87.205 30.937 87.205 35.6666V37.2716C87.2018 40.3989 86.3763 43.4704 84.8112 46.1779C83.2462 48.8855 80.9967 51.1338 78.2883 52.6975L74.4542 54.9266C71.7432 56.4918 68.6679 57.3159 65.5375 57.3159C62.4071 57.3159 59.3319 56.4918 56.6208 54.9266L55.2833 54.2133C51.1912 51.8527 46.3296 51.2124 41.7657 52.4327C37.2018 53.6531 33.3087 56.6345 30.9409 60.7225L28.9792 64.1108C26.6186 68.203 25.9782 73.0646 27.1986 77.6285C28.419 82.1923 31.4004 86.0855 35.4883 88.4533L36.8259 89.345C39.5211 90.901 41.7623 93.1353 43.3266 95.8259C44.8908 98.5164 45.7237 101.569 45.7425 104.682V109.229C45.755 112.372 44.9369 115.461 43.3711 118.186C41.8052 120.911 39.5473 123.173 36.8259 124.744L35.4883 125.547C31.4004 127.914 28.419 131.808 27.1986 136.371C25.9782 140.935 26.6186 145.797 28.9792 149.889L30.9409 153.277C33.3087 157.365 37.2018 160.347 41.7657 161.567C46.3296 162.788 51.1912 162.147 55.2833 159.787L56.6208 159.073C59.3319 157.508 62.4071 156.684 65.5375 156.684C68.6679 156.684 71.7432 157.508 74.4542 159.073L78.2883 161.302C80.9967 162.866 83.2462 165.114 84.8112 167.822C86.3763 170.53 87.2018 173.601 87.205 176.728V178.333C87.205 183.063 89.0839 187.599 92.4283 190.943C95.7727 194.288 100.309 196.167 105.038 196.167H108.962C113.691 196.167 118.227 194.288 121.572 190.943C124.916 187.599 126.795 183.063 126.795 178.333V176.728C126.798 173.601 127.624 170.53 129.189 167.822C130.754 165.114 133.003 162.866 135.712 161.302L139.546 159.073C142.257 157.508 145.332 156.684 148.463 156.684C151.593 156.684 154.668 157.508 157.379 159.073L158.717 159.787C162.809 162.147 167.67 162.788 172.234 161.567C176.798 160.347 180.691 157.365 183.059 153.277L185.021 149.8C187.381 145.708 188.022 140.846 186.801 136.282C185.581 131.718 182.6 127.825 178.512 125.457L177.174 124.744C174.453 123.173 172.195 120.911 170.629 118.186C169.063 115.461 168.245 112.372 168.258 109.229V104.771C168.245 101.628 169.063 98.5385 170.629 95.8139C172.195 93.0894 174.453 90.827 177.174 89.2558L178.512 88.4533C182.6 86.0855 185.581 82.1923 186.801 77.6285C188.022 73.0646 187.381 68.203 185.021 64.1108L183.059 60.7225C180.691 56.6345 176.798 53.6531 172.234 52.4327C167.67 51.2124 162.809 51.8527 158.717 54.2133L157.379 54.9266C154.668 56.4918 151.593 57.3159 148.463 57.3159C145.332 57.3159 142.257 56.4918 139.546 54.9266L135.712 52.6975C133.003 51.1338 130.754 48.8855 129.189 46.1779C127.624 43.4704 126.798 40.3989 126.795 37.2716V35.6666C126.795 30.937 124.916 26.401 121.572 23.0566C118.227 19.7122 113.691 17.8333 108.962 17.8333Z" stroke="white" stroke-linecap="round" stroke-linejoin="round"/>
<path d="M107 133.75C121.774 133.75 133.75 121.774 133.75 107C133.75 92.2264 121.774 80.25 107 80.25C92.2264 80.25 80.25 92.2264 80.25 107C80.25 121.774 92.2264 133.75 107 133.75Z" stroke="white" stroke-linecap="round" stroke-linejoin="round"/>
<path d="M120.147 108.71C120.147 110.462 119.823 112.082 119.175 113.57C118.527 115.058 117.603 116.354 116.403 117.458C115.227 118.562 113.823 119.426 112.191 120.05C110.559 120.65 108.759 120.95 106.791 120.95C104.607 120.95 102.615 120.614 100.815 119.942C99.0153 119.27 97.4553 118.322 96.1353 117.098C94.8393 115.85 93.8313 114.374 93.1113 112.67C92.4153 110.966 92.0673 109.082 92.0673 107.018C92.0673 104.954 92.4153 103.07 93.1113 101.366C93.8313 99.6615 94.8513 98.1975 96.1713 96.9735C97.4913 95.7255 99.0513 94.7655 100.851 94.0935C102.675 93.4215 104.679 93.0855 106.863 93.0855C109.383 93.0855 111.639 93.5295 113.631 94.4175C115.623 95.3055 117.231 96.5175 118.455 98.0535C119.679 99.5895 120.387 101.33 120.579 103.274H118.491C118.203 101.618 117.543 100.166 116.511 98.9175C115.479 97.6695 114.135 96.6975 112.479 96.0015C110.847 95.3055 108.939 94.9575 106.755 94.9575C104.211 94.9575 101.991 95.4615 100.095 96.4695C98.2233 97.4535 96.7593 98.8455 95.7033 100.646C94.6713 102.446 94.1553 104.57 94.1553 107.018C94.1553 109.442 94.6713 111.566 95.7033 113.39C96.7593 115.19 98.2353 116.594 100.131 117.602C102.027 118.586 104.247 119.078 106.791 119.078C109.287 119.078 111.459 118.598 113.307 117.638C115.155 116.678 116.583 115.37 117.591 113.714C118.599 112.058 119.103 110.186 119.103 108.098L120.147 108.71ZM108.483 109.646V107.846H120.939V120.518H119.211L119.103 108.818L119.895 109.646H108.483Z" fill="white"/>
</svg>
