<svg width="106" height="96" viewBox="0 0 106 96" fill="none" xmlns="http://www.w3.org/2000/svg">
<path d="M61.0107 13.4961L88.676 56.8933C92.7075 63.2173 88.1651 71.5 80.6653 71.5H25.3347C17.8349 71.5 13.2925 63.2173 17.324 56.8933L44.9893 13.4961C48.7235 7.63843 57.2765 7.63844 61.0107 13.4961Z" fill="black" stroke="#808080"/>
<path d="M49.7774 25H56.2094L55.2014 50.056H50.7854L49.7774 25ZM52.9934 61.384C51.8734 61.384 50.9454 61.048 50.2094 60.376C49.4734 59.672 49.1054 58.776 49.1054 57.688C49.1054 56.6 49.4734 55.72 50.2094 55.048C50.9454 54.344 51.8734 53.992 52.9934 53.992C54.1454 53.992 55.0734 54.344 55.7774 55.048C56.5134 55.72 56.8814 56.6 56.8814 57.688C56.8814 58.776 56.5134 59.672 55.7774 60.376C55.0734 61.048 54.1454 61.384 52.9934 61.384Z" fill="white"/>
</svg>
